<svg xmlns="http://www.w3.org/2000/svg" version="1.1" xmlns:xlink="http://www.w3.org/1999/xlink" xmlns:svgjs="http://svgjs.com/svgjs" width="1440" height="560" preserveAspectRatio="none" viewBox="0 0 1440 560"><g mask="url(&quot;#SvgjsMask1001&quot;)" fill="none"><path d="M1512 560L0 560 L0 361.94Q40.84 282.78, 120 323.63Q142.96 274.59, 192 297.55Q247.28 280.83, 264 336.1Q335.75 287.85, 384 359.59Q391.41 295, 456 302.41Q484.85 259.26, 528 288.11Q576.77 264.88, 600 313.66Q684.1 277.76, 720 361.86Q722.1 291.96, 792 294.05Q857.44 239.49, 912 304.93Q982.18 303.12, 984 373.3Q1002.8 272.1, 1104 290.9Q1148.24 263.13, 1176 307.37Q1231.12 290.49, 1248 345.6Q1290.97 316.58, 1320 359.55Q1332.2 299.75, 1392 311.95Q1436.3 236.25, 1512 280.54z" fill="#182f5d"></path><path d="M1488 560L0 560 L0 439.68Q45.73 365.41, 120 411.14Q135.26 354.4, 192 369.66Q240.44 346.11, 264 394.55Q293.85 352.4, 336 382.26Q388.64 362.9, 408 415.54Q414.08 349.63, 480 355.71Q549.09 304.8, 600 373.89Q679.81 333.7, 720 413.51Q768.38 341.89, 840 390.27Q870.3 348.57, 912 378.88Q989.72 336.6, 1032 414.32Q1060.96 323.28, 1152 352.25Q1193.1 321.35, 1224 362.45Q1294.16 312.61, 1344 382.77Q1412.15 378.92, 1416 447.07Q1439.24 398.31, 1488 421.54z" fill="#25467d"></path><path d="M1536 560L0 560 L0 455.92Q63.41 447.33, 72 510.74Q91.5 458.24, 144 477.74Q180.49 394.23, 264 430.72Q305.16 399.88, 336 441.05Q387.52 420.57, 408 472.09Q422.31 414.39, 480 428.7Q548.35 377.04, 600 445.39Q645.88 419.27, 672 465.15Q710.5 383.64, 792 422.14Q857.25 367.39, 912 432.65Q1003.91 404.56, 1032 496.48Q1070.42 414.9, 1152 453.33Q1238.74 420.07, 1272 506.81Q1273.91 436.73, 1344 438.64Q1374.63 397.27, 1416 427.91Q1520.29 412.2, 1536 516.49z" fill="#356cb1"></path><path d="M1488 560L0 560 L0 537.72Q37.22 454.94, 120 492.16Q209.47 461.63, 240 551.1Q288.85 479.95, 360 528.8Q419.68 516.48, 432 576.16Q450.98 475.13, 552 494.11Q620.25 442.36, 672 510.61Q743.87 462.48, 792 534.35Q806.54 476.89, 864 491.43Q929.2 436.63, 984 501.84Q1040.49 486.33, 1056 542.82Q1138.36 505.18, 1176 587.54Q1201.56 541.1, 1248 566.65Q1294.85 493.5, 1368 540.35Q1449.97 502.32, 1488 584.29z" fill="white"></path></g><defs><mask id="SvgjsMask1001"><rect width="1440" height="560" fill="#ffffff"></rect></mask></defs></svg>